<?xml version="1.0" encoding="utf-8"?><svg viewBox="0 0 322 243" xmlns="http://www.w3.org/2000/svg" xmlns:xlink="http://www.w3.org/1999/xlink"><style>:root>svg{display:none}:root>svg:target{display:block}</style><svg fill="none" viewBox="0 0 50 25" id="Vector" xmlns="http://www.w3.org/2000/svg"><path d="M49.427 10.727l-.002-.002L39.22.569a1.953 1.953 0 00-2.756 2.768l6.852 6.82H1.953a1.953 1.953 0 000 3.905h41.363l-6.852 6.82a1.953 1.953 0 002.756 2.768l10.206-10.156.001-.002a1.955 1.955 0 000-2.765z" fill="#fff"/></svg><svg fill="none" viewBox="0 0 52 52" id="header-user-logo" xmlns="http://www.w3.org/2000/svg"><circle cx="26" cy="26" r="26" fill="#fff"/><path d="M36.607 30.393a14.94 14.94 0 00-5.7-3.575 8.669 8.669 0 003.765-7.146C34.672 14.89 30.782 11 26 11s-8.672 3.89-8.672 8.672a8.669 8.669 0 003.765 7.146 14.941 14.941 0 00-5.7 3.575A14.902 14.902 0 0011 41h2.344c0-6.979 5.677-12.656 12.656-12.656 6.979 0 12.656 5.677 12.656 12.656H41c0-4.007-1.56-7.773-4.393-10.607zM26 26a6.335 6.335 0 01-6.328-6.328A6.335 6.335 0 0126 13.344a6.335 6.335 0 016.328 6.328A6.335 6.335 0 0126 26z" fill="#2E266F"/><circle cx="43.5" cy="7.5" r="7.5" fill="#31A24C"/></svg><svg fill="none" viewBox="0 0 199 199" id="services-icon-1" xmlns="http://www.w3.org/2000/svg"><path d="M24.385 192.365a3.915 3.915 0 00-2.748-1.138 3.908 3.908 0 00-2.748 1.138 3.9 3.9 0 00-1.138 2.748 3.9 3.9 0 001.138 2.748A3.91 3.91 0 0021.637 199a3.916 3.916 0 002.748-1.139 3.918 3.918 0 001.139-2.748 3.917 3.917 0 00-1.139-2.748zM145.001 164.898a3.913 3.913 0 00-2.747-1.139 3.917 3.917 0 00-2.748 1.139 3.917 3.917 0 00-1.139 2.748 3.91 3.91 0 001.139 2.748 3.921 3.921 0 002.748 1.139 3.913 3.913 0 002.747-1.139 3.91 3.91 0 001.14-2.748 3.913 3.913 0 00-1.14-2.748z" fill="#35CD8C"/><path d="M186.464 62.817a16.275 16.275 0 004.763-11.512v-3.11c0-9-7.323-16.324-16.325-16.324-9.001 0-16.324 7.323-16.324 16.324v3.11c0 4.489 1.822 8.559 4.764 11.513-6.38 3.504-11.013 9.808-12.224 17.248h-17.804c-6.429 0-11.66 5.231-11.66 11.66 0 1.363.237 2.67.669 3.887H76.677c.432-1.216.669-2.524.669-3.886 0-6.43-5.231-11.66-11.66-11.66H47.882c-1.211-7.44-5.844-13.746-12.224-17.249a16.273 16.273 0 004.764-11.513v-3.11c0-9-7.323-16.324-16.324-16.324-9.002 0-16.325 7.323-16.325 16.324v3.11c0 4.488 1.822 8.558 4.763 11.512C5.072 66.917 0 74.853 0 83.953v43.596c0 12.18 9.91 22.09 22.09 22.09h30.77v37.118c0 1.577.303 3.084.848 4.47H38.349a3.887 3.887 0 100 7.773h139.015a3.887 3.887 0 000-7.773h-32.072c.545-1.386.849-2.893.849-4.47v-4.47a3.888 3.888 0 00-7.774 0v4.47a4.475 4.475 0 01-4.47 4.47 4.475 4.475 0 01-4.469-4.47v-49.07c0-6.054 4.925-10.98 10.98-10.98h50.819v.842c0 7.894-6.422 14.316-14.316 14.316h-34.657a3.888 3.888 0 00-3.887 3.887v6.219a3.887 3.887 0 007.774 0v-2.332h30.77c12.18 0 22.089-9.91 22.089-22.09V83.953c0-9.1-5.072-17.037-12.536-21.136zm-20.112-14.622c0-4.715 3.835-8.55 8.55-8.55 4.715 0 8.551 3.835 8.551 8.55v3.11c0 4.715-3.836 8.55-8.551 8.55s-8.55-3.835-8.55-8.55v-3.11zm-150.805 0c0-4.715 3.836-8.55 8.55-8.55 4.716 0 8.551 3.835 8.551 8.55v3.11c0 4.715-3.835 8.55-8.55 8.55-4.715 0-8.551-3.835-8.551-8.55v-3.11zM7.773 83.953c0-9.001 7.323-16.324 16.325-16.324 9 0 16.324 7.323 16.324 16.324a3.887 3.887 0 003.887 3.887h21.377a3.891 3.891 0 013.886 3.887 3.891 3.891 0 01-3.886 3.886H43.05a16.708 16.708 0 01-14.75-8.832 3.886 3.886 0 10-6.852 3.671 24.466 24.466 0 0019.19 12.817c-.14.401-.217.834-.217 1.284v14.381H7.773v-34.98zm47.956 34.981h-7.534v-14.381a3.88 3.88 0 00-.178-1.166h7.712a15.442 15.442 0 00-2.092 7.773c0 2.831.764 5.485 2.092 7.774zm13.843 67.823a4.475 4.475 0 01-4.47 4.47 4.475 4.475 0 01-4.47-4.47v-41.005a3.888 3.888 0 00-3.886-3.887H22.09c-7.893 0-14.316-6.422-14.316-14.316v-.842h50.819c6.055 0 10.98 4.926 10.98 10.98v49.07zm18.268 4.47H76.497c.546-1.386.849-2.893.849-4.47v-49.07c0-4.098-1.325-7.891-3.565-10.98H87.84v64.52zm15.547 0h-7.774v-64.52h7.774v64.52zm19.116 0H111.16v-64.52h14.059a18.65 18.65 0 00-3.565 10.98v49.07c0 1.577.303 3.084.849 4.47zm7.313-72.293H69.184c-4.287 0-7.774-3.488-7.774-7.774s3.487-7.773 7.774-7.773h60.632c4.287 0 7.774 3.487 7.774 7.773s-3.487 7.774-7.774 7.774zm20.989-14.381v14.381h-7.534a15.442 15.442 0 002.092-7.774c0-2.831-.764-5.485-2.092-7.773h7.712c-.116.368-.178.76-.178 1.166zm40.422 14.381h-32.649v-14.381c0-.45-.076-.883-.217-1.284a24.466 24.466 0 0019.19-12.817 3.887 3.887 0 00-6.852-3.67 16.708 16.708 0 01-14.75 8.831h-22.635a3.89 3.89 0 01-3.886-3.886 3.89 3.89 0 013.886-3.887h21.377a3.887 3.887 0 003.887-3.887c0-9.001 7.323-16.324 16.324-16.324 9.002 0 16.325 7.323 16.325 16.324v34.981z" fill="#35CD8C"/><path d="M127.484 0H71.516c-6.43 0-11.66 5.23-11.66 11.66v38.09c0 6.43 5.23 11.66 11.66 11.66h13.548L96.75 73.098a3.877 3.877 0 002.749 1.138c.995 0 1.989-.38 2.748-1.138l11.688-11.688h13.548c6.43 0 11.661-5.23 11.661-11.66V11.66c0-6.43-5.231-11.66-11.661-11.66zm3.887 49.75a3.89 3.89 0 01-3.887 3.887h-15.158c-1.031 0-2.019.41-2.748 1.138L99.5 64.853 89.422 54.775a3.89 3.89 0 00-2.748-1.138H71.516a3.891 3.891 0 01-3.887-3.887V11.66a3.891 3.891 0 013.887-3.887h55.968a3.89 3.89 0 013.887 3.887v38.09z" fill="#35CD8C"/><path d="M83.98 26.469a3.898 3.898 0 00-2.748-1.14 3.9 3.9 0 00-2.748 1.14 3.916 3.916 0 00-1.138 2.748c0 1.022.415 2.024 1.138 2.748a3.916 3.916 0 002.748 1.138 3.915 3.915 0 002.748-1.139 3.916 3.916 0 001.14-2.747 3.915 3.915 0 00-1.14-2.748zM102.248 26.469a3.919 3.919 0 00-2.748-1.14 3.916 3.916 0 00-2.748 1.14 3.916 3.916 0 00-1.139 2.748c0 1.022.416 2.024 1.14 2.748a3.916 3.916 0 002.747 1.138 3.917 3.917 0 002.748-1.139 3.92 3.92 0 001.139-2.747 3.916 3.916 0 00-1.139-2.748zM120.515 26.469a3.896 3.896 0 00-2.747-1.14 3.899 3.899 0 00-2.748 1.14 3.916 3.916 0 00-1.139 2.748c0 1.022.415 2.024 1.139 2.748a3.915 3.915 0 002.748 1.138 3.913 3.913 0 002.747-1.139 3.916 3.916 0 001.139-2.747 3.916 3.916 0 00-1.139-2.748z" fill="#35CD8C"/></svg><svg fill="none" viewBox="0 0 199 153" id="services-icon-2" xmlns="http://www.w3.org/2000/svg"><path d="M99.616 23.151c-32.475 0-58.896 26.421-58.896 58.897s26.42 58.897 58.896 58.897 58.897-26.421 58.897-58.897-26.421-58.897-58.897-58.897zm0 110.02c-28.19 0-51.123-22.934-51.123-51.123 0-28.19 22.933-51.124 51.123-51.124 28.19 0 51.124 22.934 51.124 51.124 0 28.189-22.934 51.123-51.124 51.123z" fill="#35CD8C"/><path d="M134.481 63.05a3.887 3.887 0 00-5.274-1.55c-.063.035-.121.075-.182.112a3.884 3.884 0 00-1.367 5.163 31.95 31.95 0 013.883 15.273c0 17.603-14.321 31.924-31.925 31.924-17.603 0-31.924-14.321-31.924-31.924 0-17.604 14.32-31.925 31.924-31.925 1.689 0 3.385.133 5.039.395a3.881 3.881 0 004.403-3.02c.015-.07.033-.139.044-.21a3.887 3.887 0 00-3.231-4.447 40.088 40.088 0 00-6.255-.491c-21.89 0-39.698 17.808-39.698 39.698 0 21.889 17.808 39.698 39.698 39.698s39.698-17.809 39.698-39.698a39.755 39.755 0 00-4.833-18.998z" fill="#35CD8C"/><path d="M124.449 49.57a3.725 3.725 0 00-.591-.483 3.912 3.912 0 00-1.399-.58 3.85 3.85 0 00-2.247.223 3.947 3.947 0 00-.668.358c-.214.14-.412.303-.595.481a3.944 3.944 0 00-.839 1.264c-.062.147-.11.299-.153.453a3.783 3.783 0 00-.142 1.03 3.832 3.832 0 00.295 1.49 3.917 3.917 0 001.434 1.745 3.95 3.95 0 001.396.58c.252.05.509.073.761.073a3.849 3.849 0 002.065-.598c.03-.019.063-.035.092-.055a3.97 3.97 0 00.591-.486 3.912 3.912 0 001.139-2.748 3.914 3.914 0 00-1.139-2.748zM198.901 137.711L186.294 35.045a54.206 54.206 0 00-6.669-20.21 54.488 54.488 0 00-7.865-10.63l-.339-.357c-2.59-2.733-6.464-3.461-9.871-1.856-3.407 1.605-5.311 5.058-4.852 8.796l15.979 130.143c.052.418.122.828.211 1.232 1.327 6.049 6.73 10.37 12.891 10.369.535 0 1.076-.032 1.62-.099 4.292-.527 7.855-3.07 9.856-6.562a13.4 13.4 0 001.047-2.322 13.12 13.12 0 00.599-5.838zM164.414 9.84c-.019-.156-.07-.571.45-.817a.883.883 0 01.377-.093c.288 0 .461.183.539.265l.339.358a46.735 46.735 0 016.742 9.113 46.453 46.453 0 015.719 17.326l6.718 54.717-10.792 1.325L164.414 9.84zm26.435 131.468a5.443 5.443 0 01-4.397 3.409 5.44 5.44 0 01-6.059-4.734l-4.94-40.233 10.792-1.325 4.94 40.233a5.405 5.405 0 01-.336 2.65zM47.934 4.88a3.886 3.886 0 00-4.332 3.384l-3.535 28.79a9.257 9.257 0 01-8.664 8.145l-2.577-.316 4.65-37.862a3.887 3.887 0 00-7.716-.948l-4.65 37.862-2.578-.316a9.257 9.257 0 01-6.435-10l3.535-28.79a3.887 3.887 0 00-7.715-.947l-3.535 28.79c-.885 7.203 2.792 13.956 8.994 17.196L.153 134.962l-.005.029a13.43 13.43 0 002.623 10.177 13.422 13.422 0 009.112 5.23l.071.009a13.84 13.84 0 001.683.103c3.074 0 6.03-1.039 8.463-3.003a13.422 13.422 0 004.98-9.303l7.815-85.693C41.697 50.868 46.9 45.205 47.783 38l3.535-28.79a3.888 3.888 0 00-3.384-4.331zM19.339 137.498a5.716 5.716 0 01-2.12 3.96 5.7 5.7 0 01-4.315 1.234l-.07-.008a5.714 5.714 0 01-3.88-2.226 5.714 5.714 0 01-1.117-4.319L20.95 51.748l3.067.376.004.001h.004l3.064.376-7.751 84.997z" fill="#35CD8C"/></svg><svg fill="none" viewBox="0 0 322 243" id="services-icon-3" xmlns="http://www.w3.org/2000/svg"><path d="M137.436 230.4a6.337 6.337 0 00-4.447 1.843 6.34 6.34 0 00-1.843 4.446 6.34 6.34 0 001.843 4.447 6.337 6.337 0 004.447 1.843 6.345 6.345 0 004.446-1.843 6.328 6.328 0 001.843-4.447 6.34 6.34 0 00-1.843-4.446 6.345 6.345 0 00-4.446-1.843z" fill="#35CD8C"/><path d="M262.699 124.815l-14.657-66.214a15.699 15.699 0 009.898-5.462 18.756 18.756 0 009.974 2.863h12.578a6.288 6.288 0 006.289-6.29V24.556a6.288 6.288 0 00-6.289-6.289h-12.578a18.746 18.746 0 00-10.232 3.03c-2.879-3.256-7.083-5.315-11.76-5.315h-37.125c-6.67 0-12.379 4.184-14.652 10.063h-14.907c-9.016 0-16.351 7.336-16.351 16.352s7.335 16.351 16.351 16.351h32.372v12.674a6.288 6.288 0 006.289 6.29 6.288 6.288 0 006.289-6.29V58.748h11.006l15.786 71.329-29.878 53.217a18.473 18.473 0 01-16.071 9.391h-74.587c-3.122-26.185-25.449-46.558-52.46-46.558-11.951 0-23.227 3.894-32.61 11.259a.864.864 0 00-.036.029c-11.17 8.785-18.192 21.393-19.828 35.27H12.593c.82-45.212 37.855-81.738 83.256-81.738h44.613a6.397 6.397 0 016.388 6.39v56.481a6.288 6.288 0 006.289 6.289h33.464a37.514 37.514 0 0032.831-19.37 37.594 37.594 0 004.678-18.099l.032-20.894a6.291 6.291 0 00-6.282-6.299h-.007a6.29 6.29 0 00-6.289 6.28l-.032 20.899a24.986 24.986 0 01-3.108 12.03 24.94 24.94 0 01-21.823 12.873h-27.175v-50.192a18.87 18.87 0 00-2.233-8.918c5.65-3.265 9.463-9.367 9.463-16.347 0-10.404-8.466-18.867-18.867-18.867h-22.956a18.78 18.78 0 00-6.289 1.081V19.117C118.546 8.713 110.081.25 99.679.25H59.107C29.697.25 5.237 21.844.742 50.007c-.19.6-.292 1.236-.292 1.897 0 .04.004.076.004.113A59.396 59.396 0 000 59.357v32.716c0 9.446 6.98 17.292 16.052 18.656l13.927 13.927C11.527 142.137 0 166.856 0 194.221v4.754a6.289 6.289 0 006.29 6.289h35.343a6.417 6.417 0 00-.125 1.257c0 9.127 3.378 17.477 8.94 23.879H6.289a6.288 6.288 0 100 12.578h70.968c.243.008.484.02.727.02 20.113 0 36.477-16.364 36.477-36.477 0-.429-.044-.852-.125-1.257h90.695a31.073 31.073 0 0024.957-12.598h7.965a36.429 36.429 0 00-2.742 13.855c0 9.127 3.378 17.477 8.94 23.879h-81.559a6.29 6.29 0 000 12.578H270.96c.244.008.484.02.728.02 20.112 0 36.476-16.364 36.476-36.477 0-4.8-.951-9.497-2.742-13.855h10.289a6.289 6.289 0 006.289-6.289c0-33.197-26.397-60.346-59.301-61.562zM124.835 85.784h22.956a6.297 6.297 0 016.289 6.289 6.298 6.298 0 01-6.289 6.289h-22.956a6.297 6.297 0 01-6.289-6.29 6.295 6.295 0 016.289-6.288zM12.578 59.357c0-.388.02-.773.03-1.162h68.818a6.289 6.289 0 006.29-6.289 6.289 6.289 0 00-6.29-6.289H14.652c5.876-18.97 23.581-32.786 44.455-32.786h40.57c3.469 0 6.289 2.82 6.289 6.289v72.953a6.296 6.296 0 01-6.29 6.289H18.87h-.005c-3.467 0-6.287-2.823-6.287-6.29V59.358zm21.474 51.583h14.391a95.9 95.9 0 00-8.743 5.648l-5.648-5.648zm67.831 95.581c0 13.097-10.59 23.761-23.655 23.891-.081-.002-.163-.012-.244-.012h-.724c-12.844-.385-23.174-10.944-23.174-23.879 0-.429-.044-.852-.125-1.257h48.047a6.425 6.425 0 00-.125 1.257zm-63.682-13.836c1.558-9.991 6.805-19.017 14.91-25.382.02-.012.037-.029.056-.042 7.14-5.596 15.72-8.556 24.817-8.556 20.066 0 36.75 14.752 39.779 33.98H38.201zm229.713-161.84h6.289v12.578h-6.289a6.295 6.295 0 01-6.289-6.289c0-3.466 2.82-6.289 6.289-6.289zm-92.449 11.552a3.777 3.777 0 013.773-3.774h13.856v4.422c0 1.071.108 2.115.312 3.125h-14.168a3.777 3.777 0 01-3.773-3.773zm42.434 3.773h-9.102a3.128 3.128 0 01-3.125-3.125v-11.36a3.13 3.13 0 013.125-3.124h37.125a3.13 3.13 0 013.125 3.125v11.36a3.128 3.128 0 01-3.125 3.124h-28.023zm77.687 160.351c0 13.097-10.591 23.761-23.655 23.891-.081-.002-.162-.012-.243-.012h-.725c-12.844-.385-23.174-10.944-23.174-23.879 0-4.996 1.558-9.826 4.427-13.855h38.943a23.863 23.863 0 014.427 13.855zm-58.26-26.433l23.982-42.714c24.491.449 44.655 18.936 47.711 42.714h-71.693z" fill="#35CD8C"/><path d="M217.899 102.867a6.289 6.289 0 100-12.578h-.022a6.28 6.28 0 00-6.28 6.29c0 3.473 2.828 6.288 6.302 6.288z" fill="#35CD8C"/></svg><svg fill="none" viewBox="0 0 66 45" id="slider-arrow-right" xmlns="http://www.w3.org/2000/svg"><circle cx="43.5" cy="22.5" r="21" stroke="#fff" stroke-width="3"/><path d="M49.427 20.727l-.002-.002L39.22 10.569a1.953 1.953 0 00-2.756 2.768l6.852 6.82H1.953a1.953 1.953 0 000 3.905h41.363l-6.852 6.82a1.953 1.953 0 002.756 2.768l10.206-10.156.001-.002a1.955 1.955 0 000-2.765z" fill="#fff"/></svg></svg>